<svg width="13" height="11" viewBox="0 0 13 11" fill="none" xmlns="http://www.w3.org/2000/svg">
<path fill-rule="evenodd" clip-rule="evenodd" d="M11.1764 0.0916192C11.3183 0.00627527 11.4877 -0.0207925 11.6491 0.0160967C11.8105 0.052986 11.9514 0.150964 12.0421 0.289467L12.6759 1.2563C12.7586 1.3826 12.7939 1.53404 12.7758 1.68387C12.7576 1.83371 12.6871 1.97231 12.5767 2.07522L12.5748 2.07778L12.5658 2.08611L12.5293 2.12004L12.3853 2.2577C11.5881 3.03095 10.8152 3.8287 10.0674 4.64981C8.66072 6.19673 6.99022 8.22132 5.86588 10.1857C5.55214 10.7338 4.78572 10.8516 4.33112 10.3784L0.178871 6.0642C0.119367 6.00235 0.072904 5.92916 0.0422452 5.849C0.0115863 5.76884 -0.0026428 5.68333 0.00040345 5.59755C0.0034497 5.51178 0.0237091 5.4275 0.0599777 5.34971C0.0962462 5.27192 0.147783 5.20222 0.211526 5.14475L1.46648 4.01272C1.57677 3.91329 1.71818 3.85529 1.86652 3.84863C2.01486 3.84197 2.1609 3.88708 2.27965 3.97623L4.39835 5.56477C7.70798 2.30124 9.58465 1.04884 11.1764 0.0916192Z" fill="white"/>
</svg>
