<svg width="327" height="300" viewBox="0 0 327 300" fill="none" xmlns="http://www.w3.org/2000/svg">
<g opacity="0.25">
<path d="M77.7359 179.84H36.0587C26.1033 179.84 17.0902 176.488 10.562 171.062C4.03696 165.639 0 158.142 0 149.863C0 133.311 16.1446 119.889 36.0587 119.889H38.4783C38.8011 119.889 39.1272 119.886 39.4467 119.879C43.5946 144.714 57.7989 166.145 77.7359 179.84Z" fill="#DCDCDF"/>
<path d="M129.188 32.501C101.78 32.501 77.9336 47.7553 65.6793 70.2358C71.2032 75.5021 74.5456 82.3825 74.5456 89.9184C74.5456 100.611 67.8054 109.996 57.6641 115.301C62.7543 150.241 92.8391 177.078 129.188 177.078C169.117 177.078 201.475 144.711 201.475 104.791C201.475 64.8716 169.117 32.5042 129.188 32.5042V32.501ZM163.039 142.842C163.039 145.34 161.011 147.368 158.513 147.368H99.8695C97.3651 147.368 95.3369 145.34 95.3369 142.842V66.7303C95.3369 64.2325 97.3651 62.2042 99.8695 62.2042H140.467C141.123 62.2042 141.759 62.3445 142.346 62.6151C142.835 62.8336 143.281 63.1466 143.669 63.5314L161.715 81.5771C162.344 82.2064 162.772 83.0053 162.948 83.8629C163.013 84.1662 163.042 84.4662 163.042 84.776V142.839L163.039 142.842Z" fill="#DCDCDF"/>
<path d="M244.608 209.811C244.608 218.09 248.645 225.584 255.173 231.007C261.698 236.429 270.711 239.788 280.673 239.788H290.022C299.977 239.788 308.99 243.143 315.518 248.566C322.043 253.989 326.084 261.483 326.084 269.762C326.084 286.311 309.936 299.733 290.022 299.733H36.0587C26.1033 299.733 17.0902 296.377 10.562 290.951C4.03696 285.528 0 278.038 0 269.762C0 253.207 16.1446 239.788 36.0587 239.788H84.2446C88.725 240.695 92.4489 241.213 94.875 241.497C96.6652 241.705 98.3609 240.652 98.9609 238.953L99.6554 236.993H99.6587C104.488 235.125 108.73 232.386 112.112 229.024C111.342 230.7 110.429 232.614 109.357 234.792C104.348 244.97 94.1413 251.028 89.3315 253.431C87.7924 254.201 86.9576 255.906 87.2772 257.596L91.2489 278.436C91.6272 280.405 93.45 281.765 95.4456 281.55C101.227 280.924 113.41 278.697 127.034 270.802C141.411 262.471 148.115 249.183 150.518 243.238C151.216 241.51 150.577 239.53 149.002 238.533L120.62 220.598C119.912 220.151 119.123 219.965 118.356 220.008C119.742 216.825 120.496 213.391 120.496 209.808C120.496 204.326 118.725 199.187 115.627 194.768C120.049 195.434 124.578 195.776 129.189 195.776C142.083 195.776 154.347 193.096 165.46 188.26L167.628 191.087C170.508 194.84 175.174 196.412 179.524 195.528C187.265 210.486 207.783 248.53 223.891 264.036C244.151 283.546 264.76 266.654 255.952 245.967C247.943 227.139 212.035 190.833 199.709 178.702C200.772 175.148 200.172 171.157 197.746 167.987L196.353 166.171C211.151 149.99 220.177 128.446 220.177 104.788C220.177 54.538 179.439 13.8 129.189 13.8C94.6891 13.8 64.6728 33.0033 49.2457 61.3011C45.8446 60.4174 42.2283 59.9413 38.4783 59.9413H36.0587C26.1033 59.9413 17.0902 56.5826 10.562 51.1598C4.03696 45.7402 0 38.2467 0 29.9707C0 13.4152 16.1446 0 36.0587 0H290.025C299.98 0 308.993 3.35217 315.522 8.77826C322.047 14.2011 326.087 21.6913 326.087 29.9707C326.087 46.5228 309.939 59.9446 290.025 59.9446H265.471C245.553 59.9446 229.409 73.363 229.409 89.9185C229.409 96.3098 231.815 102.228 235.914 107.09C235.914 107.133 235.914 107.182 235.911 107.224C235.904 107.495 235.891 107.768 235.882 108.042C235.875 108.205 235.868 108.365 235.859 108.532C235.846 108.832 235.829 109.132 235.813 109.438C235.807 109.582 235.8 109.725 235.79 109.868C235.764 110.322 235.735 110.778 235.705 111.245C235.673 111.734 235.634 112.223 235.585 112.709C235.572 112.872 235.549 113.032 235.529 113.195C235.493 113.517 235.458 113.843 235.415 114.163C235.389 114.359 235.36 114.548 235.334 114.743C235.291 115.03 235.252 115.317 235.203 115.608C235.171 115.813 235.132 116.018 235.096 116.217C235.05 116.491 235.001 116.765 234.949 117.036C234.91 117.245 234.867 117.453 234.822 117.665C234.766 117.929 234.714 118.19 234.652 118.454C234.607 118.666 234.554 118.878 234.505 119.09C234.447 119.345 234.388 119.605 234.323 119.86C234.267 120.072 234.212 120.284 234.156 120.496C234.091 120.747 234.023 120.998 233.954 121.246C233.892 121.458 233.834 121.67 233.772 121.882C233.7 122.129 233.628 122.374 233.553 122.622C233.488 122.83 233.423 123.042 233.354 123.251C233.279 123.496 233.201 123.737 233.12 123.982C233.051 124.187 232.979 124.396 232.908 124.604C232.826 124.846 232.741 125.084 232.66 125.318C232.585 125.524 232.513 125.733 232.438 125.935C232.347 126.173 232.262 126.411 232.171 126.646C232.092 126.848 232.017 127.05 231.936 127.246C231.841 127.484 231.75 127.715 231.655 127.95C231.574 128.146 231.492 128.341 231.414 128.537C231.316 128.772 231.215 129.003 231.114 129.238C231.033 129.427 230.951 129.62 230.87 129.809C230.765 130.04 230.661 130.268 230.557 130.5C230.475 130.686 230.39 130.875 230.305 131.058C230.198 131.292 230.09 131.517 229.979 131.749C229.898 131.928 229.813 132.108 229.728 132.284C229.614 132.518 229.497 132.747 229.383 132.978C229.301 133.148 229.216 133.317 229.135 133.484C229.014 133.725 228.887 133.963 228.763 134.198C228.685 134.351 228.603 134.508 228.525 134.658C228.382 134.932 228.235 135.196 228.091 135.466C228.029 135.577 227.971 135.691 227.912 135.805C227.703 136.184 227.495 136.559 227.286 136.927C227.24 137.009 227.188 137.093 227.142 137.175C226.979 137.459 226.82 137.742 226.653 138.02C226.575 138.157 226.493 138.287 226.415 138.417C226.281 138.639 226.151 138.864 226.021 139.083C225.929 139.229 225.841 139.373 225.753 139.516C225.626 139.718 225.505 139.924 225.378 140.12C225.284 140.266 225.196 140.413 225.101 140.563C224.984 140.749 224.863 140.938 224.746 141.124C224.648 141.271 224.55 141.417 224.455 141.571C224.341 141.747 224.224 141.923 224.113 142.096C224.015 142.242 223.917 142.386 223.823 142.529C223.712 142.699 223.598 142.872 223.48 143.038C223.386 143.182 223.295 143.318 223.197 143.455C223.086 143.622 222.975 143.785 222.858 143.945C222.763 144.082 222.672 144.218 222.577 144.352C222.466 144.512 222.359 144.665 222.248 144.815C222.153 144.949 222.062 145.079 221.967 145.21C221.863 145.357 221.755 145.503 221.648 145.653C221.557 145.78 221.468 145.901 221.374 146.028C221.27 146.172 221.165 146.312 221.061 146.452C220.97 146.573 220.882 146.693 220.793 146.808C220.689 146.945 220.588 147.078 220.487 147.212C220.402 147.326 220.314 147.443 220.233 147.554C219.887 148.001 219.558 148.428 219.238 148.833C217.314 151.252 218.074 154.826 220.813 156.258L230.211 161.165L250.216 171.616L250.901 171.972C251.25 172.154 251.667 172.132 251.993 171.91C252.179 171.783 252.414 171.62 252.691 171.414C252.691 171.414 252.698 171.408 252.701 171.408C252.796 171.336 252.89 171.261 252.995 171.183C253.001 171.179 253.008 171.173 253.017 171.17C253.118 171.091 253.226 171.007 253.334 170.918C253.347 170.909 253.363 170.896 253.376 170.886C253.484 170.801 253.598 170.706 253.715 170.612C253.735 170.592 253.754 170.579 253.774 170.563C253.888 170.468 254.012 170.367 254.133 170.26C254.155 170.24 254.175 170.224 254.195 170.204C254.325 170.097 254.452 169.986 254.586 169.865C254.605 169.846 254.622 169.833 254.641 169.816C254.782 169.692 254.925 169.565 255.068 169.432C255.081 169.422 255.095 169.409 255.104 169.399C255.254 169.259 255.411 169.115 255.567 168.965C255.574 168.962 255.577 168.959 255.587 168.952C255.747 168.805 255.907 168.646 256.073 168.486C256.092 168.466 256.109 168.45 256.132 168.43C256.291 168.271 256.451 168.111 256.617 167.941C256.647 167.915 256.673 167.892 256.699 167.863C256.862 167.697 257.028 167.524 257.198 167.345C257.227 167.315 257.257 167.286 257.283 167.253C257.455 167.074 257.628 166.888 257.808 166.696C257.834 166.663 257.863 166.634 257.889 166.604C258.072 166.405 258.254 166.2 258.447 165.988C258.466 165.965 258.483 165.946 258.505 165.923C258.704 165.701 258.903 165.47 259.109 165.232C259.314 164.993 259.523 164.749 259.732 164.501C259.754 164.475 259.774 164.452 259.797 164.423C259.999 164.182 260.201 163.937 260.403 163.683C260.436 163.643 260.465 163.608 260.498 163.568C260.7 163.321 260.905 163.06 261.114 162.799C261.147 162.753 261.183 162.708 261.218 162.662C261.424 162.398 261.633 162.127 261.845 161.85C261.877 161.804 261.913 161.759 261.946 161.713C262.161 161.429 262.376 161.139 262.598 160.836C262.627 160.8 262.657 160.761 262.679 160.725C262.911 160.412 263.139 160.092 263.371 159.766C263.38 159.747 263.393 159.734 263.403 159.721C263.638 159.391 263.87 159.052 264.108 158.707C264.127 158.68 264.143 158.651 264.163 158.628C264.398 158.286 264.629 157.937 264.867 157.581C264.9 157.533 264.933 157.484 264.965 157.435C265.197 157.089 265.425 156.73 265.66 156.365C265.696 156.307 265.735 156.248 265.774 156.186C266.005 155.824 266.237 155.452 266.472 155.074C266.511 155.012 266.55 154.947 266.589 154.885C266.824 154.5 267.059 154.112 267.3 153.708C267.333 153.652 267.365 153.597 267.401 153.538C267.646 153.124 267.893 152.703 268.141 152.273C268.164 152.237 268.18 152.204 268.2 152.172C268.454 151.728 268.712 151.275 268.97 150.815C268.979 150.796 268.989 150.779 268.999 150.76C269.253 150.3 269.511 149.83 269.768 149.354C269.801 149.296 269.83 149.24 269.863 149.182C270.108 148.722 270.355 148.249 270.603 147.776C270.646 147.698 270.685 147.623 270.724 147.545C270.968 147.068 271.213 146.589 271.461 146.097C271.5 146.015 271.542 145.93 271.582 145.849C271.829 145.357 272.077 144.854 272.325 144.339C272.364 144.261 272.4 144.179 272.439 144.101C272.69 143.573 272.948 143.041 273.202 142.493C273.228 142.435 273.251 142.383 273.277 142.327C273.548 141.747 273.815 141.163 274.083 140.566C274.242 140.217 274.396 139.865 274.542 139.516C274.591 139.399 274.643 139.282 274.689 139.164C274.79 138.929 274.888 138.698 274.983 138.463C275.041 138.323 275.093 138.183 275.152 138.039C275.234 137.83 275.322 137.618 275.4 137.41C275.462 137.26 275.514 137.107 275.573 136.96C275.648 136.754 275.726 136.552 275.804 136.353C275.86 136.2 275.915 136.043 275.971 135.89C276.042 135.691 276.114 135.496 276.186 135.297C276.241 135.137 276.293 134.98 276.349 134.821C276.414 134.625 276.483 134.433 276.548 134.237C276.603 134.074 276.652 133.914 276.708 133.754C276.77 133.559 276.835 133.37 276.89 133.174C276.946 133.011 276.991 132.854 277.04 132.691C277.102 132.502 277.158 132.307 277.216 132.117C277.262 131.954 277.311 131.795 277.36 131.632C277.415 131.442 277.467 131.25 277.523 131.061C277.568 130.898 277.614 130.738 277.66 130.575C277.709 130.386 277.764 130.19 277.813 130.001C277.855 129.841 277.898 129.682 277.94 129.518C277.989 129.329 278.041 129.137 278.087 128.945C278.126 128.785 278.165 128.628 278.204 128.465C278.25 128.276 278.299 128.08 278.341 127.891C278.38 127.732 278.416 127.575 278.452 127.415C278.498 127.22 278.543 127.024 278.586 126.828C278.618 126.678 278.654 126.522 278.687 126.372C278.729 126.17 278.768 125.967 278.814 125.772C278.843 125.625 278.876 125.472 278.905 125.325C278.945 125.12 278.984 124.914 279.023 124.709C279.052 124.568 279.082 124.425 279.104 124.285C279.147 124.066 279.186 123.841 279.222 123.623C279.248 123.496 279.267 123.375 279.29 123.251C279.336 122.974 279.385 122.7 279.427 122.426C279.437 122.358 279.453 122.286 279.463 122.217C279.518 121.875 279.571 121.533 279.623 121.197C279.636 121.092 279.652 120.991 279.665 120.887C279.701 120.649 279.734 120.411 279.766 120.176C279.779 120.075 279.792 119.977 279.805 119.883H290.025C299.98 119.883 308.993 123.238 315.522 128.664C322.047 134.087 326.087 141.577 326.087 149.857C326.087 166.412 309.939 179.83 290.025 179.83H280.676C260.755 179.83 244.611 193.252 244.611 209.801L244.608 209.811Z" fill="#DCDCDF"/>
<path d="M277.031 230.866C287.851 230.866 296.622 222.095 296.622 211.275C296.622 200.455 287.851 191.684 277.031 191.684C266.211 191.684 257.439 200.455 257.439 211.275C257.439 222.095 266.211 230.866 277.031 230.866Z" fill="#DCDCDF"/>
<path d="M44.5951 71.2236C40.4701 81.6095 38.2006 92.9345 38.2006 104.791C38.2006 106.324 38.2397 107.846 38.3147 109.363C30.6092 106.728 25.0625 99.4204 25.0625 90.8182C25.0625 80.0182 33.8016 71.2595 44.5951 71.2269V71.2236Z" fill="#DCDCDF"/>
<path d="M64.2491 90.8155C64.2491 96.9981 61.386 102.506 56.9154 106.096C56.9056 105.662 56.9023 105.225 56.9023 104.792C56.9023 96.1829 58.4089 87.9231 61.1708 80.2666C63.1208 83.3123 64.2491 86.9351 64.2491 90.8188V90.8155Z" fill="#DCDCDF"/>
</g>
</svg>
