<svg width="188" height="40" viewBox="0 0 188 40" fill="none" xmlns="http://www.w3.org/2000/svg">
<path d="M47.7896 9.17591V19.8367C47.7896 20.3177 47.4004 20.7101 46.9177 20.7101H42.4826C41.9469 20.7101 41.5324 20.2266 41.6234 19.695C42.7227 13.3785 26.4708 22.4494 24.9974 32.8596C24.9368 33.2925 24.5729 33.6191 24.1357 33.6191H13.868C13.0821 33.6191 12.7257 32.6722 13.2842 32.1203C13.2893 32.1153 13.2943 32.1102 13.2994 32.1051C20.5219 24.7709 28.1841 17.8671 35.6215 10.7354C35.6442 10.7152 35.667 10.6974 35.6897 10.6772C37.5598 8.91768 38.9472 8.30249 40.5847 8.30249H46.9152C47.3953 8.30249 47.787 8.69237 47.787 9.17591H47.7896Z" fill="#4300FF"/>
<path d="M33.8156 8.30262L26.6039 15.1721C23.9358 17.7135 19.5146 16.1454 16.2485 17.8513C15.6952 18.1403 15.4431 18.7517 15.6149 19.739C15.6928 20.1945 15.3996 20.6144 14.9771 20.7254H11.0592C10.5651 20.7254 10.1646 20.3241 10.1646 19.8289V9.19899C10.1646 8.70387 10.5651 8.30249 11.0592 8.30249H33.8091C33.8113 8.30249 33.8135 8.3026 33.8156 8.30262Z" fill="#D9D9D9"/>
<path d="M33.8156 8.30262L26.6039 15.1721C23.9358 17.7135 19.5146 16.1454 16.2485 17.8513C15.6952 18.1403 15.4431 18.7517 15.6149 19.739C15.6928 20.1945 15.3996 20.6144 14.9771 20.7254H11.0592C10.5651 20.7254 10.1646 20.3241 10.1646 19.8289V9.19899C10.1646 8.70387 10.5651 8.30249 11.0592 8.30249H33.8091C33.8113 8.30249 33.8135 8.3026 33.8156 8.30262Z" fill="#4300FF"/>
<path d="M62.4741 13.8722V10.0342H65.633V13.8722H68.8501V16.6848H65.633V27.0874C65.633 27.9963 66.3052 28.376 67.124 28.376C67.5334 28.376 67.8544 28.376 68.3825 27.9659L69.2013 30.7507C68.4988 31.1026 67.3287 31.3381 66.6565 31.3381C64.3467 31.3381 62.4741 29.9887 62.4741 27.2646V16.6848H60.7178V13.8722H62.4741Z" fill="#181728"/>
<path d="M74.5261 30.8393H71.3672V13.8721H74.5261V16.1582L74.6145 16.2165C75.6684 14.6038 76.8965 13.3734 78.9157 13.3734C79.7067 13.3734 80.4952 13.5202 81.1977 13.7532L80.2323 16.6241C79.8533 16.5076 79.4135 16.419 78.9157 16.419C76.429 16.419 74.5286 18.4418 74.5286 20.9912V30.8368L74.5261 30.8393Z" fill="#181728"/>
<path d="M129.901 31.8951L121.533 13.8722H124.955L129.898 24.6571L134.841 13.8722H138.263L129.895 31.8951H129.901Z" fill="#181728"/>
<path d="M154.383 23.1026H157.631C157.221 27.733 153.387 31.3381 148.417 31.3381C143.122 31.3381 139.056 27.3228 139.056 22.3405C139.056 17.3582 143.122 13.3734 148.417 13.3734C151.487 13.3734 154.151 14.7506 155.846 16.8317L145.169 27.5279C146.104 28.1153 147.216 28.4646 148.417 28.4646C151.517 28.4646 154.034 26.1203 154.383 23.1026ZM143.269 25.5633L151.606 17.2114C150.671 16.5962 149.587 16.2443 148.417 16.2443C145.081 16.2443 142.389 18.9988 142.389 22.3405C142.389 23.5127 142.71 24.6266 143.266 25.5633H143.269Z" fill="#181728"/>
<path d="M168.57 22.371L174.742 30.8394H170.88L166.726 25.0064H166.667L162.513 30.8394H158.651L164.825 22.371L158.651 13.8722H162.513L166.667 19.733H166.726L170.88 13.8722H174.742L168.57 22.371Z" fill="#181728"/>
<path d="M98.8193 17.2418C99.4485 17.8924 100.075 18.5557 100.662 19.2468L98.4427 21.5886L97.8539 21.0013C95.4582 18.1329 92.3372 15.138 88.2761 16.9582C83.2118 19.2291 83.9118 26.6697 89.3072 28.0393C92.7971 28.9254 94.9882 26.6621 97.1539 24.4013C99.3121 22.1507 101.372 19.8089 103.548 17.5785C105.248 15.8342 106.906 14.4139 109.317 13.7405C113.461 12.5785 118.023 14.2013 120.075 18.0595C124.035 25.5127 116.762 33.4013 108.903 30.8039C105.989 29.8418 103.952 27.5127 101.991 25.295L104.179 22.9608C104.23 22.9532 104.551 23.295 104.611 23.3557C106.272 25.0722 107.803 27.1684 110.181 27.9254C115.425 29.5912 119.944 23.8216 116.946 19.138C115.294 16.5532 112.049 15.7633 109.292 17.062C107.381 17.9608 105.61 20.2342 104.141 21.7684C102.284 23.7076 100.469 25.7127 98.5767 27.6165C95.6149 30.5912 91.9051 32.2596 87.6747 30.814C79.1001 27.8874 79.7825 15.538 88.6602 13.581C92.7416 12.6823 96.0698 14.3987 98.8193 17.2418Z" fill="#181728"/>
</svg>
