<svg width="38" height="26" viewBox="0 0 38 26" fill="none" xmlns="http://www.w3.org/2000/svg">
<path d="M37.6255 0.873422V11.5342C37.6255 12.0152 37.2363 12.4077 36.7537 12.4077H32.3186C31.7828 12.4077 31.3684 11.9241 31.4593 11.3925C32.5586 5.07597 16.3067 14.1469 14.8334 24.5571C14.7727 24.99 14.4088 25.3166 13.9716 25.3166H3.70393C2.91799 25.3166 2.56167 24.3697 3.12016 23.8178C3.12522 23.8128 3.13027 23.8077 3.13533 23.8026C10.3578 16.4684 18.0201 9.5646 25.4574 2.43292C25.4802 2.41267 25.5029 2.39495 25.5256 2.3747C27.3957 0.615193 28.7831 0 30.4207 0H36.7511C37.2313 0 37.623 0.389875 37.623 0.873422H37.6255Z" fill="#4300FF"/>
<path d="M23.6511 0.00012507L16.4393 6.86956C13.7712 9.411 9.35007 7.84294 6.08396 9.54883C5.53062 9.83784 5.27851 10.4492 5.45034 11.4365C5.52829 11.892 5.23506 12.3119 4.81254 12.423H0.89466C0.400553 12.423 0 12.0216 0 11.5265V0.896502C2.88204e-08 0.401378 0.400553 0 0.89466 0H23.6446C23.6468 0 23.6489 0.00010968 23.6511 0.00012507Z" fill="#D9D9D9"/>
<path d="M23.6511 0.00012507L16.4393 6.86956C13.7712 9.411 9.35007 7.84294 6.08396 9.54883C5.53062 9.83784 5.27851 10.4492 5.45034 11.4365C5.52829 11.892 5.23506 12.3119 4.81254 12.423H0.89466C0.400553 12.423 0 12.0216 0 11.5265V0.896502C2.88204e-08 0.401378 0.400553 0 0.89466 0H23.6446C23.6468 0 23.6489 0.00010968 23.6511 0.00012507Z" fill="#4300FF"/>
</svg>
