<svg width="292" height="62" viewBox="0 0 292 62" fill="none" xmlns="http://www.w3.org/2000/svg">
<path d="M74.2265 14.2226V30.7469C74.2265 31.4925 73.622 32.1007 72.8723 32.1007H65.9838C65.1517 32.1007 64.5079 31.3512 64.6493 30.5271C66.3567 20.7366 41.1143 34.7965 38.826 50.9323C38.7318 51.6033 38.1666 52.1095 37.4875 52.1095H21.5398C20.3191 52.1095 19.7657 50.6419 20.6331 49.7865C20.641 49.7786 20.6488 49.7708 20.6567 49.7629C31.8746 38.3949 43.7755 27.694 55.3271 16.6399C55.3625 16.6085 55.3978 16.581 55.4331 16.5496C58.3377 13.8224 60.4926 12.8688 63.036 12.8688H72.8684C73.6142 12.8688 74.2226 13.4731 74.2226 14.2226H74.2265Z" fill="#4300FF"/>
<path d="M52.5221 12.869L38.8138 25.8999C36.1473 28.4345 32.1962 28.5434 28.6318 27.6326C25.6482 26.8702 23.7415 27.6627 24.2529 30.5955C24.374 31.3015 23.9185 31.9524 23.2623 32.1244H17.1771C16.4096 32.1244 15.7875 31.5023 15.7875 30.7348V14.2584C15.7875 13.491 16.4096 12.8688 17.1771 12.8688H52.512C52.5154 12.8688 52.5188 12.869 52.5221 12.869Z" fill="#D9D9D9"/>
<path d="M52.5221 12.869L38.8138 25.8999C36.1473 28.4345 32.1962 28.5434 28.6318 27.6326C25.6482 26.8702 23.7415 27.6627 24.2529 30.5955C24.374 31.3015 23.9185 31.9524 23.2623 32.1244H17.1771C16.4096 32.1244 15.7875 31.5023 15.7875 30.7348V14.2584C15.7875 13.491 16.4096 12.8688 17.1771 12.8688H52.512C52.5154 12.8688 52.5188 12.869 52.5221 12.869Z" fill="#4300FF"/>
<path d="M97.0342 21.5018V15.5529H101.941V21.5018H106.937V25.8614H101.941V41.9854C101.941 43.3942 102.985 43.9828 104.256 43.9828C104.892 43.9828 105.391 43.9828 106.211 43.3471L107.483 47.6636C106.392 48.209 104.574 48.574 103.53 48.574C99.9427 48.574 97.0342 46.4824 97.0342 42.2601V25.8614H94.3063V21.5018H97.0342Z" fill="#181728"/>
<path d="M115.753 47.8009H110.847V21.5018H115.753V25.0452L115.891 25.1355C117.527 22.6359 119.435 20.7288 122.571 20.7288C123.8 20.7288 125.024 20.9564 126.115 21.3174L124.616 25.7673C124.027 25.5868 123.344 25.4494 122.571 25.4494C118.709 25.4494 115.757 28.5847 115.757 32.5363V47.797L115.753 47.8009Z" fill="#181728"/>
<path d="M201.76 49.4373L188.764 21.5018H194.079L201.756 38.2183L209.434 21.5018H214.748L201.752 49.4373H201.76Z" fill="#181728"/>
<path d="M239.786 35.809H244.83C244.194 42.9861 238.24 48.574 230.519 48.574C222.296 48.574 215.981 42.3504 215.981 34.6278C215.981 26.9052 222.296 20.7288 230.519 20.7288C235.288 20.7288 239.425 22.8635 242.059 26.089L225.476 42.6682C226.928 43.5786 228.655 44.1201 230.519 44.1201C235.335 44.1201 239.245 40.4864 239.786 35.809ZM222.524 39.6232L235.473 26.6776C234.021 25.7241 232.337 25.1787 230.519 25.1787C225.338 25.1787 221.158 29.448 221.158 34.6278C221.158 36.4447 221.656 38.1712 222.52 39.6232H222.524Z" fill="#181728"/>
<path d="M261.822 34.6749L271.407 47.8009H265.41L258.957 38.7599H258.866L252.414 47.8009H246.416L256.005 34.6749L246.416 21.5018H252.414L258.866 30.586H258.957L265.41 21.5018H271.407L261.822 34.6749Z" fill="#181728"/>
<path d="M153.485 26.7247C154.463 27.7332 155.436 28.7613 156.347 29.8326L152.9 33.4624L151.986 32.552C148.265 28.106 143.417 23.4638 137.11 26.2852C129.244 29.8051 130.331 41.338 138.711 43.4609C144.132 44.8343 147.535 41.3262 150.899 37.822C154.251 34.3335 157.45 30.7038 160.829 27.2466C163.471 24.543 166.046 22.3416 169.79 21.2978C176.227 19.4966 183.312 22.0119 186.499 27.9922C192.65 39.5447 181.353 51.7721 169.146 47.746C164.621 46.2548 161.457 42.6447 158.411 39.2072L161.81 35.5892C161.889 35.5774 162.387 36.1072 162.482 36.2014C165.06 38.8619 167.439 42.111 171.132 43.2843C179.277 45.8664 186.295 36.9234 181.64 29.6639C179.073 25.6574 174.033 24.4331 169.751 26.4461C166.783 27.8392 164.032 31.363 161.751 33.741C158.867 36.7468 156.048 39.8547 153.108 42.8056C148.508 47.4164 142.746 50.0023 136.175 47.7617C122.858 43.2255 123.917 24.0838 137.706 21.0505C144.045 19.6575 149.215 22.318 153.485 26.7247Z" fill="#181728"/>
</svg>
