<svg width="64" height="64" viewBox="0 0 64 64" fill="none" xmlns="http://www.w3.org/2000/svg">
<rect width="64" height="64" rx="8" fill="white"/>
<path d="M53.875 18.3885V30.7593C53.875 31.3175 53.4225 31.7728 52.8612 31.7728H47.7042C47.0812 31.7728 46.5993 31.2117 46.7051 30.5948C47.9833 23.2652 29.0858 33.791 27.3726 45.871C27.3021 46.3734 26.8789 46.7523 26.3706 46.7523H14.4314C13.5175 46.7523 13.1032 45.6536 13.7526 45.0132C13.7585 45.0073 13.7644 45.0014 13.7703 44.9956C22.1685 36.4849 31.0781 28.4738 39.7261 20.1982C39.7526 20.1747 39.779 20.1541 39.8054 20.1306C41.9799 18.0889 43.5932 17.375 45.4973 17.375H52.8583C53.4166 17.375 53.8721 17.8274 53.8721 18.3885H53.875Z" fill="#4300FF"/>
<path d="M37.6262 17.3751L31.0468 23.6294C26.8773 27.5928 15.4743 24.9787 16.4626 30.6459C16.5532 31.1745 16.2123 31.6618 15.721 31.7906H11.1653C10.5908 31.7906 10.125 31.3248 10.125 30.7503V18.4153C10.125 17.8408 10.5908 17.375 11.1653 17.375H37.6186C37.6212 17.375 37.6237 17.3751 37.6262 17.3751Z" fill="#4300FF"/>
</svg>
